<?xml version="1.0" encoding="utf-8"?>
<!-- Generator: Adobe Illustrator 25.4.1, SVG Export Plug-In . SVG Version: 6.00 Build 0)  -->
<svg version="1.1" id="Layer_1" xmlns="http://www.w3.org/2000/svg" xmlns:xlink="http://www.w3.org/1999/xlink" x="0px" y="0px"
	 viewBox="0 0 566 199.7" style="enable-background:new 0 0 566 199.7;" xml:space="preserve">
<style type="text/css">
	.st0{fill:#FACE00;}
	.st1{fill:#FFFFFF;}
</style>
<rect width="566" height="199.7"/>
<g>
	<path class="st1" d="M220.6,90.8c-2.9-4.9-10.1-8.4-17.3-8.4c-14.7,0-26.1,12.4-26.1,28.2c0,15.9,11.4,28.3,26.1,28.3
		c7.2,0,14.4-3.6,17.3-8.4v7.3h12.3V60h-12.3V90.8z M220.6,119c-2.7,4.7-8.7,8.1-14.8,8.1c-9.3,0-16.4-7.1-16.4-16.5
		c0-9.4,7.1-16.4,16.4-16.4c6.2,0,12.1,3.4,14.8,8.2V119z"/>
	<path class="st1" d="M283.5,90.8c-2.9-4.9-10.1-8.4-17.3-8.4c-14.7,0-26.1,12.4-26.1,28.2c0,15.9,11.4,28.3,26.1,28.3
		c7.2,0,14.4-3.6,17.3-8.4v7.3h12.3V83.5h-12.3V90.8z M283.5,119c-2.7,4.7-8.7,8.1-14.8,8.1c-9.3,0-16.4-7.1-16.4-16.5
		c0-9.4,7.1-16.4,16.4-16.4c6.2,0,12.1,3.4,14.8,8.2V119z"/>
	<path class="st1" d="M369.6,82.3c-7.9,0-14.1,4.4-17.8,8.8c-3.4-6-8.9-8.8-16.3-8.8c-8.4,0-13.9,4.6-16.5,8.2v-7.1h-12.3v54.3H319
		v-36.4c2.2-4.3,6.8-7.6,12.3-7.6c6.9,0,11.7,5,11.7,13.1v30.9h12.4v-34.6l-0.3-1.9c2.4-4.1,7.4-7.4,12.3-7.4
		c7.3,0,11.9,5,11.9,13.1v30.9h12.5v-33.2C391.8,91.1,382.7,82.3,369.6,82.3z"/>
	<path class="st1" d="M414.9,90.9v-7.4h-12.3v54.3h12.3v-34.6c2.9-6,8.8-9.3,12.9-9.3c2.1,0,4.6,0.4,6.9,1.1V83.2
		c-1.2-0.6-3.3-0.9-5.9-0.9C423.8,82.3,417.7,85.7,414.9,90.9z"/>
	<path class="st1" d="M462.7,82.3c-15.7,0-28,12.2-28,28c0,16.2,12.3,28.5,28.2,28.5c13.3,0,23.7-7.6,25.6-19h-12.4
		c-1.1,4.7-6.3,7.8-13,7.8c-8.8,0-14.3-5-15.9-13h41.6c0.2-1,0.3-3.8,0.3-5.2C489.2,93.6,477.3,82.3,462.7,82.3z M447.6,104.1
		c1.8-6.7,7.1-10.5,14.4-10.5c7.4,0,12.7,4.3,13.8,10.5H447.6z"/>
	<rect x="497.3" y="83.5" class="st1" width="12.3" height="54.3"/>
	<path class="st1" d="M503.5,75.9c4.3,0,8-3.6,8-8c0-4.2-3.7-7.9-8-7.9c-4.3,0-7.9,3.7-7.9,7.9C495.7,72.4,499.2,75.9,503.5,75.9z"
		/>
	<path class="st0" d="M149.7,91.9c0-17.6-14.3-31.8-31.8-31.8h-3.3h-1H86.3c-17.6,0-31.8,14.3-31.8,31.8v47.9h28.9v-5.4
		c0-6.1,4.9-11,11-11s11,4.9,11,11v5.4h26.4v-10.8h-16.2c-2.5-9.6-11.2-16.4-21.2-16.4c-9.9,0-18.7,6.9-21.2,16.4h-7.9v-37
		c0-11.6,9.4-21,21-21h7.4c-2.4,3.7-3.8,8.1-3.8,12.9c0,13.1,10.6,23.7,23.7,23.7h18.2V96.6h-18.2c-7.1,0-12.9-5.8-12.9-12.9
		c0-7.1,5.8-12.9,12.9-12.9h1h3.3c11.6,0,21,9.4,21,21v27.3c0,11.3,9.2,20.6,20.6,20.6h1v-10.8h-1c-5.4,0-9.7-4.4-9.7-9.7v-11.7h0.7
		c5.5,0,10-4.5,10-10v-0.8h-10.7V91.9z"/>
</g>
</svg>
